# Blender 3.4.1
# www.blender.org
mtllib cube.mtl
o Cube
v 5.000000 -5.000000 -5.000000
v 5.000000 -5.000000 5.000000
v -5.000000 -5.000000 5.000000
v -5.000000 -5.000000 -5.000000
v 5.000000 5.000000 -4.999995
v 4.999995 5.000000 5.000005
v -5.000000 5.000000 5.000000
v -5.000000 5.000000 -5.000000
vn 0.5774 -0.5774 0.5773
vn -0.5774 -0.5774 0.5774
vn -0.5774 -0.5774 -0.5774
vn -0.5774 0.5774 -0.5774
vn -0.5774 0.5774 0.5774
vn 0.5773 0.5774 0.5774
vn 0.5774 0.5774 -0.5773
vn 0.5774 -0.5774 -0.5774
vt 0.666667 0.333333
vt 0.333333 0.333333
vt 1.000000 0.333333
vt 0.333333 0.000000
vt 0.333333 0.333333
vt 1.000000 0.666667
vt 0.666667 0.333333
vt 0.333333 1.000000
vt 0.666667 0.666667
vt 0.333333 0.666667
vt 1.000000 0.000000
vt 0.000000 0.333333
vt 0.000000 0.000000
vt 0.666667 0.000000
vt 0.333333 0.000000
vt 0.666667 0.333333
vt 0.666667 0.000000
vt 0.000000 1.000000
vt 1.000000 0.333333
vt 0.000000 0.666667
s 1
usemtl Material.001
f 2/3/1 3/6/2 4/9/3
f 8/19/4 7/16/5 6/14/6
f 5/12/7 6/13/6 2/4/1
f 6/15/6 7/17/5 3/7/2
f 3/8/2 7/18/5 8/20/4
f 1/2/8 4/10/3 8/20/4
f 1/1/8 2/3/1 4/9/3
f 5/11/7 8/19/4 6/14/6
f 1/2/8 5/12/7 2/4/1
f 2/5/1 6/15/6 3/7/2
f 4/10/3 3/8/2 8/20/4
f 5/12/7 1/2/8 8/20/4
