# Blender 3.4.1
# www.blender.org
o Cube
v -7.500000 7.500000 7.500000
v -7.500000 -7.500000 7.500000
v -7.500000 7.500000 -7.500000
v -7.500000 -7.500000 -7.500000
v 7.500000 7.500000 7.500000
v 7.500000 -7.500000 7.500000
v 7.500000 7.500000 -7.500000
v 7.500000 -7.500000 -7.500000
vn 0.5774 0.5774 0.5774
vn -0.5774 0.5774 -0.5774
vn -0.5774 0.5774 0.5774
vn 0.5774 -0.5774 -0.5774
vn -0.5774 -0.5774 -0.5774
vn 0.5774 0.5774 -0.5774
vn 0.5774 -0.5774 0.5774
vn -0.5774 -0.5774 0.5774
s 1
f 5//1 3//2 1//3
f 3//2 8//4 4//5
f 7//6 6//7 8//4
f 2//8 8//4 6//7
f 1//3 4//5 2//8
f 5//1 2//8 6//7
f 5//1 7//6 3//2
f 3//2 7//6 8//4
f 7//6 5//1 6//7
f 2//8 4//5 8//4
f 1//3 3//2 4//5
f 5//1 1//3 2//8
